<?xml version="1.0" encoding="utf-8"?>
<!-- Generator: Adobe Illustrator 27.5.0, SVG Export Plug-In . SVG Version: 6.00 Build 0)  -->
<svg version="1.1" xmlns="http://www.w3.org/2000/svg" xmlns:xlink="http://www.w3.org/1999/xlink" x="0px" y="0px"
	 viewBox="0 0 500 500" style="enable-background:new 0 0 500 500;" xml:space="preserve">
<g id="BACKGROUND">
</g>
<g id="OBJECTS">
	<g>
		<polygon style="fill:#FFCF00;" points="369.983,391.53 132.506,391.53 156.914,127.852 345.575,127.852 		"/>
		<polygon style="fill:#FFAE00;" points="345.575,127.852 312.697,127.852 335.62,375.487 133.991,375.487 132.506,391.53 
			369.983,391.53 		"/>
		<path d="M216.283,128.206c0-19.278,15.684-34.961,34.961-34.961c19.277,0,34.962,18.35,34.962,34.961h19.526
			c0-30.093-24.395-54.488-54.488-54.488c-30.093,0-54.488,24.395-54.488,54.488H216.283z"/>
	</g>
	<g>
		<g>
			
				<ellipse transform="matrix(0.7976 -0.6032 0.6032 0.7976 -152.4729 306.4247)" style="fill:#FA4141;" cx="380.348" cy="380.403" rx="35.151" ry="50.241"/>
			<path style="fill:#E32222;" d="M408.385,359.199c-15.333-20.274-38.535-29.052-54.226-21.382
				c13.523,0.739,28.764,9.391,39.873,24.08c16.737,22.131,17.753,49.565,2.269,61.275c-1.299,0.982-2.679,1.811-4.116,2.513
				c6.851,0.375,13.262-1.274,18.469-5.212C426.138,408.764,425.122,381.331,408.385,359.199z"/>
			<polygon style="fill:#FFFFFF;" points="398.963,348.484 373.36,367.847 351.638,339.125 348.447,341.538 370.17,370.26 
				344.567,389.624 346.98,392.813 401.376,351.674 			"/>
			
				<ellipse transform="matrix(0.7976 -0.6032 0.6032 0.7976 -152.4729 306.4247)" style="fill:none;stroke:#000000;stroke-width:4;stroke-miterlimit:10;" cx="380.348" cy="380.403" rx="35.151" ry="50.241"/>
		</g>
		<path style="fill:none;stroke:#000000;stroke-width:6;stroke-miterlimit:10;" d="M149.315,317.681
			c3.77,36.254,51.457,50.301,96.181,32.398c33.647-13.469,80.3-39.655,104.547-9.748"/>
	</g>
	<g>
		<g>
			<path d="M47.057,225.041c0-37.516,28.791-63.864,68.051-63.864c23.906,0,42.75,8.725,54.791,24.429L143.9,208.813
				c-7.154-9.074-15.705-14.309-26.698-14.309c-17.1,0-28.616,11.866-28.616,30.536c0,18.671,11.516,30.536,28.616,30.536
				c10.993,0,19.543-5.235,26.698-14.308l25.999,23.207c-12.04,15.704-30.885,24.429-54.791,24.429
				C75.848,288.905,47.057,262.556,47.057,225.041z"/>
		</g>
		<path style="fill:#FFFFFF;" d="M104.054,271.158c-24.623-3.79-41.068-21.694-41.068-46.117c0-24.423,16.446-42.327,41.068-46.117
			c-20.24,4.965-33.54,22.548-33.54,46.117C70.514,248.61,83.814,266.193,104.054,271.158z"/>
		<g>
			<path style="fill:#FA4141;" d="M70.221,284.495c0-37.516,28.791-63.864,68.051-63.864c23.906,0,42.75,8.725,54.791,24.429
				l-25.999,23.207c-7.154-9.073-15.705-14.308-26.697-14.308c-17.1,0-28.617,11.866-28.617,30.536
				c0,18.671,11.517,30.536,28.617,30.536c10.993,0,19.543-5.235,26.697-14.309l25.999,23.207
				c-12.04,15.704-30.885,24.429-54.791,24.429C99.012,348.358,70.221,322.01,70.221,284.495z"/>
			<path style="fill:#FFFFFF;" d="M128.289,330.612c-24.623-3.79-41.068-21.694-41.068-46.117c0-24.423,16.446-42.327,41.068-46.117
				c-20.24,4.965-33.54,22.548-33.54,46.117C94.749,308.064,108.05,325.647,128.289,330.612z"/>
		</g>
		<text transform="matrix(1 0 0 1 158.3455 311.8968)" style="font-family:'Montserrat-Black'; font-size:66.1592px;">OLLECT</text>
		
			<text transform="matrix(1 0 0 1 330.9681 249.9319)" style="fill:#FA4141; font-family:'Montserrat-Black'; font-size:119.4534px;">&amp;</text>
		<text transform="matrix(1 0 0 1 161.971 243.6478)" style="font-family:'Montserrat-Black'; font-size:63.385px;">LICK</text>
	</g>
	<text transform="matrix(1 0 0 1 160.3965 407.6803)" style="font-family:'Montserrat-Black'; font-size:11.4147px;">YOUR COMPANY NAME HERE</text>
</g>
</svg>
